# xmcd CD database file
#
# Track frame offsets:
#	150
#	15365
#	36171
#	55332
#	77590
#	92811
#	105629
#	123810
#	139159
#	155567
#	173086
#	187906
#	204415
#
# Disc length: 3135 seconds
#
# Revision: 4
# Processed by: cddbd v1.5.1PL0 Copyright (c) Steve Scherf et al.
# Submitted via: CDex 1.51
#
DISCID=9d0c3d0d
DTITLE=Rob Tognoni Band - Headstrong
DYEAR=1997
DGENRE=Blues
TTITLE0=Time Changes
TTITLE1=Got Yourself To Blame
TTITLE2=Stones And Colours
TTITLE3=Roosevelt And Ira Lee
TTITLE4=Wanna Be With You
TTITLE5=Ain't That Enough
TTITLE6=Take Me Away
TTITLE7=Dark Angel
TTITLE8=Everlasting Lovin' Boy
TTITLE9=Jim Beam Blues
TTITLE10=The Riverside
TTITLE11=Keep Your Head Above Water
TTITLE12=Baby Please Don't Go
EXTD=YEAR: 1997
EXTT0=
EXTT1=
EXTT2=
EXTT3=
EXTT4=
EXTT5=
EXTT6=
EXTT7=
EXTT8=
EXTT9=
EXTT10=
EXTT11=
EXTT12=
PLAYORDER=
